<mxfile host="app.diagrams.net" modified="2024-04-07T11:21:29.453Z" agent="Mozilla/5.0 (X11; Linux x86_64) AppleWebKit/537.36 (KHTML, like Gecko) Chrome/123.0.0.0 Safari/537.36" version="24.2.2" etag="VBkr4Hl-dQq2wihGL8O7" type="github">
  <diagram name="Halaman-1" id="Rl-3BQvSLrYhMTcYVDwM">
    <mxGraphModel>
      <root>
        <mxCell id="0" />
        <mxCell id="1" parent="0" />
      </root>
    </mxGraphModel>
  </diagram>
</mxfile>
